/* XPM */
static const char * clear_xpm[] = {
"32 32 2 1",
" 	c None",
".	c #b2b2b2",
"                                ",
"                                ",
"                                ",
"                                ",
"                                ",
"                                ",
"                                ",
"                                ",
"                                ",
"                                ",
"                                ",
"           ...    ...           ",
"           ....  ....           ",
"           ..........           ",
"            ........            ",
"             ......             ",
"             ......             ",
"            ........            ",
"           ..........           ",
"           ....  ....           ",
"           ...    ...           ",
"                                ",
"                                ",
"                                ",
"                                ",
"                                ",
"                                ",
"                                ",
"                                ",
"                                ",
"                                ",
"                                "};
