/* XPM */
static const char * expand_xpm[] = {
"32 32 2 1",
" 	c None",
".	c #333333",
"..........            ..........",
"..........            ..........",
"..........            ..........",
".........              .........",
"........                ........",
".........              .........",
"..........            ..........",
"...........          ...........",
".... .......        ....... ....",
"...   ......        ......   ...",
"       .....        .....       ",
"        ...          ...        ",
"                                ",
"                                ",
"                                ",
"                                ",
"                                ",
"                                ",
"                                ",
"                                ",
"        ...          ...        ",
"       .....        .....       ",
"...   ......        ......   ...",
".... .......        ....... ....",
"...........          ...........",
"..........            ..........",
".........              .........",
"........                ........",
".........              .........",
"..........            ..........",
"..........            ..........",
"..........            .........."};
