/* XPM */
static const char * ts_filter_xpm[] = {
"32 32 290 2",
"  	c None",
". 	c #C31F2B",
"+ 	c #D04C58",
"@ 	c #D1505B",
"# 	c #D1535D",
"$ 	c #E49A9F",
"% 	c #D25860",
"& 	c #CA3442",
"* 	c #BA020E",
"= 	c #BB0411",
"- 	c #DC7F87",
"; 	c #BC0211",
"> 	c #E0898F",
", 	c #C62A36",
"' 	c #BA020F",
") 	c #D45C65",
"! 	c #C72F3A",
"~ 	c #BF0D1A",
"{ 	c #BE0D1B",
"] 	c #BC0412",
"^ 	c #CE4550",
"/ 	c #D76972",
"( 	c #CD4651",
"_ 	c #CD4652",
": 	c #CA3642",
"< 	c #CA3742",
"[ 	c #D96A73",
"} 	c #C72B38",
"| 	c #DA737C",
"1 	c #D5616A",
"2 	c #BB020F",
"3 	c #BC0210",
"4 	c #CA3541",
"5 	c #E39096",
"6 	c #C0101E",
"7 	c #BB0311",
"8 	c #DF858B",
"9 	c #D35862",
"0 	c #CE434E",
"a 	c #BC0411",
"b 	c #F6DDE1",
"c 	c #DB757C",
"d 	c #D56069",
"e 	c #CE4651",
"f 	c #CB3D47",
"g 	c #C21C29",
"h 	c #D96E76",
"i 	c #E6A5AC",
"j 	c #D35A63",
"k 	c #CC424D",
"l 	c #C52935",
"m 	c #D04F57",
"n 	c #D66871",
"o 	c #BE0816",
"p 	c #BE0A17",
"q 	c #D2535C",
"r 	c #BC0A17",
"s 	c #CC3E49",
"t 	c #BC0512",
"u 	c #CB3D49",
"v 	c #D0505A",
"w 	c #C52834",
"x 	c #E49DA1",
"y 	c #D04D56",
"z 	c #C8313C",
"A 	c #C41F2B",
"B 	c #BC0613",
"C 	c #D66069",
"D 	c #C42430",
"E 	c #BF121E",
"F 	c #DF868E",
"G 	c #EEBDC2",
"H 	c #BD0916",
"I 	c #D6636D",
"J 	c #D66169",
"K 	c #BE111D",
"L 	c #E7A2A6",
"M 	c #D6636B",
"N 	c #D2525D",
"O 	c #BB0210",
"P 	c #CA3843",
"Q 	c #D0515A",
"R 	c #C62A35",
"S 	c #EDBEC2",
"T 	c #C9343F",
"U 	c #C8303B",
"V 	c #BC0413",
"W 	c #DC7D84",
"X 	c #C4202D",
"Y 	c #D45D65",
"Z 	c #CB3D48",
"` 	c #D2515C",
" .	c #C21926",
"..	c #E6A0A5",
"+.	c #D86B74",
"@.	c #BB0410",
"#.	c #C52934",
"$.	c #DE7B83",
"%.	c #D46069",
"&.	c #D2555F",
"*.	c #D45E68",
"=.	c #D2525B",
"-.	c #D25760",
";.	c #C52430",
">.	c #E79EA3",
",.	c #E08B91",
"'.	c #C21826",
").	c #CC3D46",
"!.	c #EAACB0",
"~.	c #BE0C1B",
"{.	c #C01421",
"].	c #D5616B",
"^.	c #BE0A18",
"/.	c #D45C66",
"(.	c #F4D8DB",
"_.	c #BC0614",
":.	c #CA3A46",
"<.	c #BC0714",
"[.	c #C72C37",
"}.	c #C31D29",
"|.	c #C21B28",
"1.	c #CA3A44",
"2.	c #CE4A54",
"3.	c #C11A27",
"4.	c #DB7A81",
"5.	c #D97078",
"6.	c #C11320",
"7.	c #D86D75",
"8.	c #CB3C48",
"9.	c #CB3843",
"0.	c #CC444D",
"a.	c #DD7881",
"b.	c #E49A9E",
"c.	c #E2929A",
"d.	c #EFBDC1",
"e.	c #BC0311",
"f.	c #D56169",
"g.	c #DC7D86",
"h.	c #D25961",
"i.	c #D04F58",
"j.	c #C72D38",
"k.	c #D55F69",
"l.	c #D55E69",
"m.	c #D55E66",
"n.	c #CD434E",
"o.	c #C52833",
"p.	c #D04A55",
"q.	c #D6606A",
"r.	c #D35963",
"s.	c #E59EA3",
"t.	c #BC0310",
"u.	c #BD0B18",
"v.	c #D6686F",
"w.	c #C11723",
"x.	c #D6646C",
"y.	c #CF4B55",
"z.	c #C21D29",
"A.	c #CC3B46",
"B.	c #E8A7AC",
"C.	c #CC3D48",
"D.	c #C62935",
"E.	c #C93540",
"F.	c #E0858C",
"G.	c #BA0411",
"H.	c #D8656E",
"I.	c #D04C56",
"J.	c #BC0511",
"K.	c #CF4953",
"L.	c #C4242F",
"M.	c #D76971",
"N.	c #D35964",
"O.	c #C21925",
"P.	c #C82C39",
"Q.	c #C4232E",
"R.	c #C93542",
"S.	c #D5656D",
"T.	c #DD7F87",
"U.	c #C3212D",
"V.	c #E3989E",
"W.	c #E5989E",
"X.	c #D76871",
"Y.	c #BE0D1A",
"Z.	c #E8A5AA",
"`.	c #D76770",
" +	c #CF4E58",
".+	c #BF1320",
"++	c #CD4750",
"@+	c #BA0210",
"#+	c #D55D66",
"$+	c #CE4751",
"%+	c #C52631",
"&+	c #D76B74",
"*+	c #C62C37",
"=+	c #D6656E",
"-+	c #E08A91",
";+	c #C93A44",
">+	c #D35760",
",+	c #C62431",
"'+	c #D35A64",
")+	c #C31C29",
"!+	c #CF4A53",
"~+	c #BD0B19",
"{+	c #D86E77",
"]+	c #D04B56",
"^+	c #C21D28",
"/+	c #C21C28",
"(+	c #D45963",
"_+	c #BF0C1A",
":+	c #D6626B",
"<+	c #C9333F",
"[+	c #C01523",
"}+	c #C01623",
"|+	c #C8303C",
"1+	c #CB3F49",
"2+	c #CB3945",
"3+	c #CF4E59",
"4+	c #D87279",
"5+	c #DF888E",
"6+	c #C11A26",
"7+	c #D1505A",
"8+	c #E3949B",
"9+	c #DF858C",
"0+	c #C72836",
"a+	c #D2565F",
"b+	c #C72D39",
"c+	c #DE7F86",
"d+	c #C5242F",
"e+	c #C93A45",
"f+	c #CC4550",
"g+	c #C11C27",
"h+	c #D04C55",
"i+	c #C72C38",
"j+	c #BD0211",
"k+	c #BF1220",
"l+	c #C7303A",
"m+	c #DA727A",
"n+	c #C01422",
"o+	c #DD8087",
"p+	c #C52531",
"q+	c #D1525B",
"r+	c #CE444D",
"s+	c #CA3641",
"t+	c #C3202C",
"u+	c #C8333F",
"v+	c #D25861",
"w+	c #B3767B",
"x+	c #C35D65",
"y+	c #2F2F2F",
"z+	c #000000",
"A+	c #262626",
"B+	c #5A5A5A",
"C+	c #252525",
"D+	c #575757",
"E+	c #4D4D4D",
"F+	c #7C7C7C",
"G+	c #777777",
"H+	c #010101",
"I+	c #8C8C8C",
"J+	c #171717",
"K+	c #424242",
"L+	c #414141",
"M+	c #696969",
"N+	c #6A6A6A",
"O+	c #030303",
"P+	c #1B1B1B",
"Q+	c #373737",
"R+	c #838383",
"S+	c #303030",
"T+	c #2C2C2C",
"U+	c #3B3B3B",
"V+	c #212121",
"W+	c #E18E93",
"X+	c #CD3C48",
"Y+	c #D14C58",
"Z+	c #DE8089",
"`+	c #C72835",
" @	c #CF4853",
".@	c #DB747D",
"+@	c #E19097",
"@@	c #CB404A",
"#@	c #CD444D",
"$@	c #CC424C",
"%@	c #C01723",
"&@	c #CD404B",
"*@	c #D45B64",
"=@	c #D6666F",
"-@	c #BB0211",
";@	c #DB747C",
">@	c #CE4A53",
",@	c #CD404C",
"    . +     @ #     $ %                                         ",
"  & * =   - * ; >   , ' )   ! ~           { ]                   ",
"^ / ( _     : <     [ } | 1 2 3 4 5 1     6 7 8         9 7 0   ",
"2 a b                   c d e f   g 2 h     i           j 2 k   ",
"l m   n o p     q r s   t 2 u     v w x y z   A B C D E F G     ",
"H I J B * K L M N O P   Q R           S ; 2 T U V W H 3 X Y     ",
"3 Z ` a  ...+.@.#.$.    %.&.      *.=.  -.;.    >.  ,.'.2 o     ",
").    !.~.{.].^./.    (._.2 :.    <.; [.        }.|.    1.2.    ",
"    w 3.2 O 4.    5.6.7.8.9.      0.<     a.  b.2 O c.    W     ",
"  d.e.3 f.g.      h.2 i.                j.2 k.  l.m.    n.O o.  ",
"    n p.            q.          r.s.    n.t.u.9         v.w.s   ",
"    x.y.    z.A.          Y B.i.2 C.      D.2 E.: F.            ",
"    G.* H.I.; J.        K.3 n.m.L.M.        N.z O O.            ",
"  P.o Q.    R.S.        T.U.d V.        W.X.  r.e.Y.  Z.`.      ",
" +2 .+                      ++@+#+$+%+&+*+O =+  -+    ;+3 >+    ",
"  ,+'+            )+!       !+~+{+y.2 < ]+^+M.        h./+(+    ",
"        f _+:+  <+3 [+          k.}+|+-+          1+2+          ",
"        Y.2 3+    4+5+  T.      6+3 7+          8+O ; 9+        ",
"  0+    a+T b+c+      d+O y.    U 2 y.    %.2+    e+f+          ",
"g+3 h+    i+j+k+      l+{.m+    d n+o+    a 2 r.    d p+`.      ",
"N }+      q+/+r+                          s+t+      u+2 v+      ",
"                                                    w+x+        ",
"y+z+z+A+B+C+z+z+D+  z+z+z+    z+z+z+E+F+A+z+z+G+  z+z+A+    z+z+",
"H+z+z+z+I+z+z+z+J+K+z+z+z+L+  z+z+z+H+  z+z+z+M+z+z+z+z+N+O+z+z+",
"P+z+z+z+  z+z+z+P+Q+z+z+z+P+R+z+z+z+P+  z+z+z+S+T+z+z+z+U+V+z+z+",
"                                                                ",
"                                      W+X+                      ",
"                                      Z * Y+                    ",
"              Z+`+T.         @.@      +@@@s.                    ",
"              #@* $@      h 2 %@                       @&@      ",
"                *@          Z =@                      * -@;@    ",
"                                                      >@,@      "};
