/* XPM */
static const char * list_add_xpm[] = {
"32 32 57 1",
" 	c None",
".	c #5A5B57",
"+	c #555753",
"@	c #565854",
"#	c #585C56",
"$	c #D9D9D8",
"%	c #D9D9D9",
"&	c #D8D8D8",
"*	c #D9DAD9",
"=	c #C4C5C3",
"-	c #DBDCDA",
";	c #C3C4C2",
">	c #5A5B58",
",	c #575955",
"'	c #585A56",
")	c #5A5D58",
"!	c #DADBDA",
"~	c #DCDCDB",
"{	c #5F605D",
"]	c #5A5C57",
"^	c #DCDCDC",
"/	c #DBDBDA",
"(	c #DEDFDD",
"_	c #C8C9C7",
":	c #DDDDDC",
"<	c #DCDDDC",
"[	c #E0E0DF",
"}	c #CBCCCA",
"|	c #CCCDCB",
"1	c #E0E1E0",
"2	c #DADAD9",
"3	c #D8D9D8",
"4	c #DADBD9",
"5	c #5C5E59",
"6	c #666965",
"7	c #6F706E",
"8	c #5E605C",
"9	c #5B5D59",
"0	c #5C5E5A",
"a	c #595B57",
"b	c #595A57",
"c	c #DDDEDD",
"d	c #DFE0DE",
"e	c #5A5C58",
"f	c #D0D1CF",
"g	c #E2E3E1",
"h	c #E2E3E2",
"i	c #D5D5D4",
"j	c #E5E5E4",
"k	c #E4E5E3",
"l	c #D7D8D6",
"m	c #E6E7E6",
"n	c #E6E7E5",
"o	c #D8D9D7",
"p	c #E2E2E1",
"q	c #E5E6E5",
"r	c #5B5E5A",
"                                ",
"                                ",
"                                ",
"                                ",
"              .+@@#             ",
"              @$%&@             ",
"              @*=-@             ",
"              @*;-@             ",
"              @*;-+             ",
"              @*;-+             ",
"              @*;-+             ",
"              @*;-+             ",
"              @*;-+             ",
"     >@,,,,,,')!=~{,,,,,@@@]    ",
"     +^^~~-/-!^(_(:<<<<<<<<+    ",
"     +[}}}}}}}}}}}}}}}}}}|1+    ",
"     +!222222222;32222444!-+    ",
"     '555555556<_:7890999a'b    ",
"              ,c|de             ",
"              ,[fge             ",
"              ,hije             ",
"              ,klme             ",
"              ,klme             ",
"              ,kln9             ",
"              ,kon9             ",
"              ,pqm9             ",
"              r@,+b             ",
"                                ",
"                                ",
"                                ",
"                                ",
"                                "};
