/* XPM */
static const char * media_record_xpm[] = {
"32 32 198 2",
"  	c None",
". 	c #941313",
"+ 	c #A20909",
"@ 	c #A30202",
"# 	c #9E0E0E",
"$ 	c #AC1313",
"% 	c #C43838",
"& 	c #CE4B4B",
"* 	c #D75F5F",
"= 	c #D65E5E",
"- 	c #CD4949",
"; 	c #C43535",
"> 	c #AC1212",
", 	c #A40505",
"' 	c #BF3131",
") 	c #D95E5E",
"! 	c #D13D3D",
"~ 	c #CD2A2A",
"{ 	c #C91919",
"] 	c #CC2929",
"^ 	c #D03A3A",
"/ 	c #D75656",
"( 	c #BD2D2D",
"_ 	c #A50505",
": 	c #CE4848",
"< 	c #D54D4D",
"[ 	c #C91A1A",
"} 	c #D03838",
"| 	c #DC6A6A",
"1 	c #DF7777",
"2 	c #DE7272",
"3 	c #D54C4C",
"4 	c #C81717",
"5 	c #D34545",
"6 	c #CC4040",
"7 	c #A11313",
"8 	c #D44949",
"9 	c #C71313",
"0 	c #DB6666",
"a 	c #E89C9C",
"b 	c #E9A1A1",
"c 	c #E69595",
"d 	c #E38787",
"e 	c #DF7979",
"f 	c #D03636",
"g 	c #C60F0F",
"h 	c #D23F3F",
"i 	c #BC2828",
"j 	c #A11212",
"k 	c #AC1010",
"l 	c #D55252",
"m 	c #D54F4F",
"n 	c #E58F8F",
"o 	c #E59292",
"p 	c #E48C8C",
"q 	c #E18181",
"r 	c #DE7575",
"s 	c #DB6767",
"t 	c #D85A5A",
"u 	c #CA1F1F",
"v 	c #C81515",
"w 	c #D34747",
"x 	c #AC0F0F",
"y 	c #A22222",
"z 	c #C02C2C",
"A 	c #CF3232",
"B 	c #C81818",
"C 	c #DD7171",
"D 	c #DF7676",
"E 	c #E07878",
"F 	c #E07575",
"G 	c #DF6E6E",
"H 	c #DD6666",
"I 	c #DA5B5B",
"J 	c #D64F4F",
"K 	c #C60E0E",
"L 	c #CD2B2B",
"M 	c #BE2525",
"N 	c #A71111",
"O 	c #C83A3A",
"P 	c #CB2222",
"Q 	c #C71111",
"R 	c #D54B4B",
"S 	c #DA5959",
"T 	c #DC5D5D",
"U 	c #DD5F5F",
"V 	c #DD5D5D",
"W 	c #DC5858",
"X 	c #DB5252",
"Y 	c #D94A4A",
"Z 	c #D64040",
"` 	c #CE2323",
" .	c #C70F0F",
"..	c #CA1E1E",
"+.	c #C53030",
"@.	c #A60404",
"#.	c #D04444",
"$.	c #C80F0F",
"%.	c #CD1C1C",
"&.	c #D84242",
"*.	c #DA4545",
"=.	c #DB4646",
"-.	c #DC4545",
";.	c #DB4242",
">.	c #DA3D3D",
",.	c #D73636",
"'.	c #D42929",
").	c #CE1414",
"!.	c #CB1111",
"~.	c #C91515",
"{.	c #CD3737",
"].	c #A50404",
"^.	c #CF3F3F",
"/.	c #C91616",
"(.	c #CE1313",
"_.	c #D21A1A",
":.	c #D72828",
"<.	c #DA2E2E",
"[.	c #DB2E2E",
"}.	c #DA2B2B",
"|.	c #DA2727",
"1.	c #D71E1E",
"2.	c #D41717",
"3.	c #D11515",
"4.	c #CC1616",
"5.	c #CC3333",
"6.	c #A81616",
"7.	c #C52F2F",
"8.	c #CD1F1F",
"9.	c #D51717",
"0.	c #D81919",
"a.	c #DA1B1B",
"b.	c #DB1C1C",
"c.	c #DC1C1C",
"d.	c #D01F1F",
"e.	c #C52626",
"f.	c #AC3333",
"g.	c #BD2020",
"h.	c #D12929",
"i.	c #D01414",
"j.	c #DE1E1E",
"k.	c #E01F1F",
"l.	c #E11F1F",
"m.	c #D32525",
"n.	c #BD1B1B",
"o.	c #AB0C0C",
"p.	c #D33535",
"q.	c #D31B1B",
"r.	c #D61818",
"s.	c #E12020",
"t.	c #E42222",
"u.	c #E52222",
"v.	c #D71B1B",
"w.	c #D52E2E",
"x.	c #AB0A0A",
"y.	c #AF2626",
"z.	c #BB1B1B",
"A.	c #D82F2F",
"B.	c #D71919",
"C.	c #E82424",
"D.	c #EA2525",
"E.	c #DA2929",
"F.	c #BB1717",
"G.	c #AE2525",
"H.	c #A80909",
"I.	c #CA2525",
"J.	c #DD2020",
"K.	c #E52323",
"L.	c #EA2626",
"M.	c #EE2828",
"N.	c #E12222",
"O.	c #DE2B2B",
"P.	c #CB1F1F",
"Q.	c #A80808",
"R.	c #BD1818",
"S.	c #DC2E2E",
"T.	c #E22A2A",
"U.	c #E62828",
"V.	c #E82626",
"W.	c #EA2828",
"X.	c #E92A2A",
"Y.	c #E62A2A",
"Z.	c #DF2B2B",
"`.	c #BD1616",
" +	c #B22A2A",
".+	c #AC0B0B",
"++	c #C31818",
"@+	c #D02121",
"#+	c #E02A2A",
"$+	c #D21F1F",
"%+	c #C51717",
"&+	c #AC0A0A",
"*+	c #C87C7C",
"=+	c #B84444",
"-+	c #B02020",
";+	c #A90909",
">+	c #B12020",
",+	c #CA7E7E",
"                                                                ",
"                                                                ",
"                                                                ",
"                                                                ",
"                                                                ",
"                                                                ",
"                                                                ",
"                          . + @ @ + .                           ",
"                      # $ % & * = - ; > #                       ",
"                    , ' ) ! ~ { { ] ^ / ( ,                     ",
"                  _ : < [ } | 1 2 3 [ 4 5 6 ,                   ",
"                7 ( 8 9 0 a b c d e | f g h i j                 ",
"                k l 4 m d n o p q r s t u v w x                 ",
"              y z A B s C D E F G H I J ^ K L M y               ",
"              N O P Q R S T U V W X Y Z `  ...+.N               ",
"              @.#.v $.%.&.*.=.-.;.>.,.'.).!.~.{.@.              ",
"              ].^./.!.(._.:.<.[.}.|.1.2.3.(.4.5.].              ",
"              6.7.8.(.3.9.0.a.b.c.b.a.0.9.3.d.e.6.              ",
"              f.g.h.i.2.0.b.j.k.l.k.j.b.0.2.m.n.f.              ",
"                o.p.q.r.a.j.s.t.u.t.s.j.a.v.w.x.                ",
"                y.z.A.B.c.k.t.C.D.C.t.k.c.E.F.G.                ",
"                  H.I.[.J.s.K.L.M.L.K.N.O.P.Q.                  ",
"                    H.R.S.T.U.V.W.X.Y.Z.`.H.                    ",
"                       +.+++@+Z.#+$+%+&+ +                      ",
"                        *+=+-+;+;+>+=+,+                        ",
"                                                                ",
"                                                                ",
"                                                                ",
"                                                                ",
"                                                                ",
"                                                                ",
"                                                                "};
