/* XPM */
static const char * metno_xpm[] = {
"32 32 498 2",
"  	c None",
". 	c #CDD3E6",
"+ 	c #C3CAE2",
"@ 	c #AEB8D7",
"# 	c #6B84B4",
"$ 	c #368E8A",
"% 	c #159E79",
"& 	c #1CA383",
"* 	c #66BFAA",
"= 	c #A4D8CB",
"- 	c #51B19A",
"; 	c #909CC8",
"> 	c #5E6FAE",
", 	c #5B6DAD",
"' 	c #576AAB",
") 	c #596CAC",
"! 	c #8392C1",
"~ 	c #9ABBC6",
"{ 	c #60B89E",
"] 	c #19A07D",
"^ 	c #009873",
"/ 	c #149C7B",
"( 	c #79C4B2",
"_ 	c #289E81",
": 	c #3AA489",
"< 	c #B5BDDA",
"[ 	c #7785BB",
"} 	c #6A78B4",
"| 	c #6B7AB5",
"1 	c #6373B1",
"2 	c #5C6EAE",
"3 	c #5266A9",
"4 	c #547DA2",
"5 	c #82C4AF",
"6 	c #64BCA4",
"7 	c #039A75",
"8 	c #009671",
"9 	c #27A283",
"0 	c #6FBFAB",
"a 	c #068D6B",
"b 	c #189373",
"c 	c #A0AAD0",
"d 	c #6F7EB7",
"e 	c #7F8BBF",
"f 	c #9EA6CE",
"g 	c #B3B9D9",
"h 	c #B6BCDA",
"i 	c #A7B0D3",
"j 	c #8C97C6",
"k 	c #5E70AF",
"l 	c #526EA5",
"m 	c #4AA888",
"n 	c #88C8B4",
"o 	c #2BA989",
"p 	c #009773",
"q 	c #00926F",
"r 	c #41AC92",
"s 	c #47AB92",
"t 	c #008866",
"u 	c #59B199",
"v 	c #A3D1C5",
"w 	c #B2BBD9",
"x 	c #6B7BB5",
"y 	c #7481B9",
"z 	c #BCC2DD",
"A 	c #ACB3D5",
"B 	c #A0A7CF",
"C 	c #98A0CB",
"D 	c #979FCB",
"E 	c #AEB5D6",
"F 	c #8D98C6",
"G 	c #576BAB",
"H 	c #4EA68A",
"I 	c #53AF91",
"J 	c #6AC2AB",
"K 	c #019874",
"L 	c #00936F",
"M 	c #089371",
"N 	c #76C1AE",
"O 	c #028A67",
"P 	c #209677",
"Q 	c #72B9A6",
"R 	c #7887BB",
"S 	c #6776B3",
"T 	c #B0B6D7",
"U 	c #99A1CC",
"V 	c #B2B7D9",
"W 	c #D9DCEC",
"X 	c #EBEDF5",
"Y 	c #F6F7FA",
"Z 	c #F2F3F9",
"` 	c #EAECF4",
" .	c #DEE2EF",
"..	c #B2D6CC",
"+.	c #78C0A8",
"@.	c #8ACEBD",
"#.	c #029974",
"$.	c #00906D",
"%.	c #68BBA6",
"&.	c #139272",
"*.	c #008764",
"=.	c #72BAA7",
"-.	c #1D8367",
";.	c #C8CEE3",
">.	c #6A7AB5",
",.	c #6978B4",
"'.	c #B6BDDA",
").	c #D7D9EB",
"!.	c #FBFCFD",
"~.	c #D9DCED",
"{.	c #D1D5E8",
"].	c #A7AFD3",
"^.	c #8B96C5",
"/.	c #8C99C6",
"(.	c #BAD0D7",
"_.	c #E6F3EF",
":.	c #CAEAE2",
"<.	c #3AAF93",
"[.	c #00946F",
"}.	c #64B9A4",
"|.	c #179474",
"1.	c #54AC95",
"2.	c #2B886F",
"3.	c #257E66",
"4.	c #93A1CA",
"5.	c #6576B2",
"6.	c #6574B2",
"7.	c #8C97C5",
"8.	c #B9BFDC",
"9.	c #A9AFD4",
"0.	c #CFD2E7",
"a.	c #F1F2F9",
"b.	c #C7CBE2",
"c.	c #7E89BE",
"d.	c #7483BA",
"e.	c #9EBFC5",
"f.	c #70BCA4",
"g.	c #8CCEBB",
"h.	c #D3EEE7",
"i.	c #73C3B0",
"j.	c #149878",
"k.	c #73BFAC",
"l.	c #0A8E6C",
"m.	c #008663",
"n.	c #3B9E84",
"o.	c #41937D",
"p.	c #04664B",
"q.	c #7D8FBF",
"r.	c #8292C1",
"s.	c #7182B9",
"t.	c #5F70AF",
"u.	c #6C7AB6",
"v.	c #9AA3CD",
"w.	c #B8BEDC",
"x.	c #C7CCE3",
"y.	c #DDE0EE",
"z.	c #828DC0",
"A.	c #7A87BD",
"B.	c #A1ACD0",
"C.	c #56909D",
"D.	c #34A27F",
"E.	c #159E7A",
"F.	c #3BAF94",
"G.	c #CCE9E2",
"H.	c #A1D5C9",
"I.	c #75C0AD",
"J.	c #018966",
"K.	c #3E9F85",
"L.	c #3E907A",
"M.	c #006348",
"N.	c #216E59",
"O.	c #5E74AF",
"P.	c #576DAC",
"Q.	c #97A4CB",
"R.	c #6778B3",
"S.	c #6071B0",
"T.	c #6D7BB6",
"U.	c #7985BC",
"V.	c #7783BB",
"W.	c #DDE1EE",
"X.	c #A3ADD1",
"Y.	c #6073B0",
"Z.	c #3F7B94",
"`.	c #279F7C",
" +	c #1DA583",
".+	c #45B298",
"++	c #79C5B3",
"@+	c #C4E5DD",
"#+	c #A1D4C7",
"$+	c #149271",
"%+	c #008562",
"&+	c #5EAE98",
"*+	c #207E64",
"=+	c #006146",
"-+	c #0C5C45",
";+	c #6278B2",
">+	c #3D579F",
",+	c #6075B0",
"'+	c #9EA9CF",
")+	c #8794C3",
"!+	c #6374B1",
"~+	c #6877B3",
"{+	c #B3BBD9",
"]+	c #E1E4F0",
"^+	c #7A89BD",
"/+	c #485FA4",
"(+	c #397694",
"_+	c #52B39B",
":+	c #70C5B0",
"<+	c #41AF94",
"[+	c #1A9B7B",
"}+	c #259D80",
"|+	c #C4E4DB",
"1+	c #8BC9B9",
"2+	c #058664",
"3+	c #76B8A6",
"4+	c #076D51",
"5+	c #005E44",
"6+	c #0B5943",
"7+	c #7B8EBE",
"8+	c #36539C",
"9+	c #3C569F",
"0+	c #4961A5",
"a+	c #7687BB",
"b+	c #96A2CB",
"c+	c #8593C2",
"d+	c #7E8DBF",
"e+	c #B0B9D8",
"f+	c #CDD4E6",
"g+	c #475EA3",
"h+	c #5066A8",
"i+	c #81A6BE",
"j+	c #55B9A2",
"k+	c #039673",
"l+	c #00926E",
"m+	c #008E6B",
"n+	c #008B68",
"o+	c #2C9D80",
"p+	c #C1E2DA",
"q+	c #A1D0C3",
"r+	c #60A794",
"s+	c #00654A",
"t+	c #005A41",
"u+	c #206350",
"v+	c #95A4CB",
"w+	c #37539C",
"x+	c #415AA1",
"y+	c #4A60A5",
"z+	c #5C70AF",
"A+	c #6F81B8",
"B+	c #B6BFDB",
"C+	c #B9C2DD",
"D+	c #556BAB",
"E+	c #92A1C9",
"F+	c #4788A0",
"G+	c #059575",
"H+	c #008F6C",
"I+	c #008C69",
"J+	c #199676",
"K+	c #62B5A0",
"L+	c #A4D4C7",
"M+	c #E9F3F0",
"N+	c #90BFB2",
"O+	c #026248",
"P+	c #00563E",
"Q+	c #397363",
"R+	c #4863A5",
"S+	c #8D9DC7",
"T+	c #4661A4",
"U+	c #35519C",
"V+	c #38539D",
"W+	c #3B559E",
"X+	c #3D569F",
"Y+	c #3E579F",
"Z+	c #BAC3DD",
"`+	c #B3BDD9",
" @	c #8F9EC8",
".@	c #4761A4",
"+@	c #1F678B",
"@@	c #029070",
"#@	c #149877",
"$@	c #44AB91",
"%@	c #71BEAB",
"&@	c #67B8A3",
"*@	c #1E9475",
"=@	c #02815F",
"-@	c #2C8C72",
";@	c #BBD7CF",
">@	c #96BBB1",
",@	c #1D6450",
"'@	c #618D80",
")@	c #36529C",
"!@	c #5870AD",
"~@	c #5C73AF",
"{@	c #35519B",
"]@	c #39559E",
"^@	c #E8EBF4",
"/@	c #B3BDDA",
"(@	c #435EA2",
"_@	c #2F4D98",
":@	c #1E6689",
"<@	c #32A38A",
"[@	c #74C1AE",
"}@	c #46AB92",
"|@	c #139271",
"1@	c #028865",
"2@	c #008461",
"3@	c #007B5A",
"4@	c #016E50",
"5@	c #267A63",
"6@	c #B8D0CA",
"7@	c #BACFC9",
"8@	c #8AA79F",
"9@	c #445EA2",
"0@	c #2B4996",
"a@	c #314E99",
"b@	c #6F84B8",
"c@	c #8E9EC7",
"d@	c #778ABB",
"e@	c #677CB4",
"f@	c #6178B1",
"g@	c #8C9CC6",
"h@	c #CAD1E5",
"i@	c #4560A3",
"j@	c #2D4B98",
"k@	c #3C589F",
"l@	c #759DB6",
"m@	c #5EB5A0",
"n@	c #008966",
"o@	c #017D5B",
"p@	c #0D795C",
"q@	c #368671",
"r@	c #539280",
"s@	c #7BA499",
"t@	c #94B1A8",
"u@	c #D4DEDB",
"v@	c #4A63A4",
"w@	c #2B4895",
"x@	c #4B65A6",
"y@	c #5B73AE",
"z@	c #7084B9",
"A@	c #D5DBEB",
"B@	c #8496C2",
"C@	c #2D4B97",
"D@	c #8A9AC5",
"E@	c #438798",
"F@	c #058C6B",
"G@	c #008765",
"H@	c #03805F",
"I@	c #4EA08A",
"J@	c #75AF9F",
"K@	c #4E8E7C",
"L@	c #2F7360",
"M@	c #074F3A",
"N@	c #034431",
"O@	c #39685A",
"P@	c #7487B9",
"Q@	c #8194C1",
"R@	c #D4DAE9",
"S@	c #34519A",
"T@	c #5A71AD",
"U@	c #8798C3",
"V@	c #3E589F",
"W@	c #15697D",
"X@	c #008865",
"Y@	c #128E6D",
"Z@	c #51A790",
"`@	c #76B4A3",
" #	c #388972",
".#	c #036348",
"+#	c #00553E",
"@#	c #004D37",
"##	c #004430",
"$#	c #003E2B",
"%#	c #667AB0",
"&#	c #2D4995",
"*#	c #3C579D",
"=#	c #D2D8E9",
"-#	c #8092C0",
";#	c #788ABB",
">#	c #7A8CBC",
",#	c #38539B",
"'#	c #2B4894",
")#	c #116D77",
"!#	c #008763",
"~#	c #3BA186",
"{#	c #72B7A5",
"]#	c #3A927A",
"^#	c #107459",
"/#	c #005940",
"(#	c #004E38",
"_#	c #004732",
":#	c #003F2C",
"<#	c #023D2C",
"[#	c #B5BED6",
"}#	c #7E8EBA",
"|#	c #5168A4",
"1#	c #3B559A",
"2#	c #3B569B",
"3#	c #ADB8D6",
"4#	c #D1D7E8",
"5#	c #919FC7",
"6#	c #576DA9",
"7#	c #2B4892",
"8#	c #29448E",
"9#	c #28438B",
"0#	c #287D7E",
"a#	c #61B09B",
"b#	c #55A38D",
"c#	c #0A7558",
"d#	c #00674B",
"e#	c #006045",
"f#	c #00573E",
"g#	c #004F39",
"h#	c #004631",
"i#	c #00402D",
"j#	c #013C2B",
"k#	c #0D4534",
"l#	c #5B6EA0",
"m#	c #6B7DAB",
"n#	c #808FB9",
"o#	c #B0BAD5",
"p#	c #DFE3EE",
"q#	c #8291BA",
"r#	c #425998",
"s#	c #274289",
"t#	c #264188",
"u#	c #254085",
"v#	c #3B5290",
"w#	c #7CB1AB",
"x#	c #358F77",
"y#	c #016C4F",
"z#	c #00664A",
"A#	c #005E43",
"B#	c #00573F",
"C#	c #004733",
"D#	c #003C2B",
"E#	c #043E2D",
"F#	c #2E4580",
"G#	c #5B6D9D",
"H#	c #DDE1EB",
"I#	c #5E6FA0",
"J#	c #233C7E",
"K#	c #223B7D",
"L#	c #223B7B",
"M#	c #546798",
"N#	c #8593B3",
"O#	c #076C52",
"P#	c #006549",
"Q#	c #005F44",
"R#	c #00523A",
"S#	c #004C36",
"T#	c #004530",
"U#	c #003F2D",
"V#	c #003B2A",
"W#	c #8692B3",
"X#	c #D2D6E3",
"Y#	c #7785A9",
"Z#	c #253C77",
"`#	c #1F3674",
" $	c #1F3673",
".$	c #405387",
"+$	c #7F8BAC",
"@$	c #2C4973",
"#$	c #005F45",
"$$	c #00543C",
"%$	c #004934",
"&$	c #003C2A",
"*$	c #293D70",
"=$	c #1D3168",
"-$	c #1B2F67",
";$	c #394B7B",
">$	c #808BA9",
",$	c #203367",
"'$	c #103954",
")$	c #00513A",
"!$	c #004834",
"~$	c #004431",
"{$	c #3B4B76",
"]$	c #1A2C5E",
"^$	c #17295C",
"/$	c #737E9C",
"($	c #404F77",
"_$	c #152757",
":$	c #0A3845",
"<$	c #004833",
"[$	c #00402E",
"}$	c #023C2C",
"|$	c #0C4434",
"1$	c #465276",
"2$	c #7B849B",
"3$	c #1C2B53",
"4$	c #17294D",
"5$	c #083837",
"6$	c #03402E",
"7$	c #074131",
"8$	c #053F2E",
"9$	c #06402F",
"                                                                ",
"                                                                ",
"                                                                ",
"                      . + @ # $ % & * = -                       ",
"                  ; > , ' ) ! ~ { ] ^ / ( _ :                   ",
"              < [ } | } 1 2 3 4 5 6 7 8 9 0 a b                 ",
"            c d e f g h i j k l m n o p q r s t u v             ",
"          w x y z A B C D E F G H I J K L M N O P Q             ",
"          R S T U V W X Y Z `  ...+.@.#.L $.%.&.*.=.-.          ",
"        ;.>.,.'.U ).!.~.{.].^./.(._.:.<.[.$.}.|.*.1.2.3.        ",
"        4.5.6.7.8.9.0.a.b.c.} d.e.f.g.h.i.j.k.l.m.n.o.p.        ",
"      q.r.s.t.u.v.w.x.y.y.z.A.B.C.D.E.F.G.H.I.J.m.K.L.M.N.      ",
"      O.P.Q.R.S.T.y U.V.W.X.X.Y.Z.`. +.+++@+#+$+%+&+*+=+-+      ",
"      ;+>+,+'+)+!+6.~+S {+]+^+/+(+_+:+<+[+}+|+1+2+3+4+5+6+      ",
"      7+8+9+0+a+B.b+c+d+e+f+g+h+i+j+k+l+m+n+o+p+q+r+s+t+u+      ",
"      v+w+8+>+x+y+z+A+a+B+C+D+E+F+G+L H+I+J+K+L+M+N+O+P+Q+      ",
"      R+S+T+U+V+W+X+Y+>+Z+`+ @.@+@@@#@$@%@&@*@=@-@;@>@,@'@      ",
"      )@!@S+~@w+{@)@)@]@^@/@(@_@:@<@[@}@|@1@2@3@4@5@6@7@8@      ",
"      9@0@a@b@c@d@e@f@g@h@i@j@k@l@m@a n@*.%+o@p@q@r@s@t@u@      ",
"      v@w@w@0@a@x@y@z@A@B@C@i@D@E@F@n@G@%+H@I@J@K@L@M@N@O@      ",
"      P@w@w@w@w@0@0@Q@R@S@T@U@V@W@X@*.Y@Z@`@ #.#+#@###$#        ",
"        %#&#w@w@w@*#=#-#;#>#,#'#)#!#~#{#]#^#=+/#(#_#:#<#        ",
"        [#}#|#1#2#3#4#5#6#7#8#9#0#a#b#c#d#e#f#g#h#i#j#k#        ",
"          l#m#n#o#p#q#r#s#t#u#v#w#x#y#z#A#B#(#C#i#D#E#          ",
"            F#G#H#I#J#J#K#L#M#N#O#P#Q#/#R#S#T#U#V#<#            ",
"            W#X#Y#Z#`#`# $.$+$@$#$t+$$g#%$##:#&$<#              ",
"                *$=$-$-$;$>$,$'$)$(#!$~$U#D#j#E#                ",
"                  {$]$^$/$($_$:$<$T#[$$#V#}$|$                  ",
"                      1$2$3$4$5$6$7$8$9$                        ",
"                                                                ",
"                                                                ",
"                                                                "};
