/* XPM */
static const char * search_small_xpm[] = {
"22 32 2 1",
" 	c None",
".	c #AFAFAF",
"                      ",
"                      ",
"                      ",
"                      ",
"                      ",
"                      ",
"                      ",
"       ......         ",
"      .........       ",
"     ...........      ",
"    ....    ....      ",
"   ....      ....     ",
"   ...        ...     ",
"   ...        ...     ",
"   ...        ...     ",
"   ...        ...     ",
"   ....       ...     ",
"    ....     ....     ",
"    .............     ",
"     .............    ",
"       ............   ",
"               .....  ",
"                ..... ",
"                 .... ",
"                  ... ",
"                      ",
"                      ",
"                      ",
"                      ",
"                      ",
"                      ",
"                      "};
