/* XPM */
static const char * search_folder_xpm[] = {
"22 22 3 1",
" 	c None",
".	c #454040",
"+	c #444040",
"      ...+.           ",
"    +........         ",
"  .+..........+       ",
"  ...... ....+.       ",
" ..+.       +...      ",
" +.+         .+..     ",
"....         ....     ",
"....          ...     ",
"...           ...     ",
"....          ...     ",
"...+         ....     ",
" ...         +.+.     ",
" ...+       ....      ",
"  .+...   ..+...      ",
"  ........+......     ",
"    ..............    ",
"     .......  .....   ",
"               +..+.  ",
"                ++... ",
"                 ....+",
"                  .+.+",
"                   +. "};
