/* XPM */
static const char * ts_find_xpm[] = {
"32 32 8 1",
" 	c None",
".	c #000000",
"+	c #800000",
"@	c #550000",
"#	c #400000",
"$	c #BF0000",
"%	c #FF0000",
"&	c #AA0000",
"           ..+++++@..           ",
"         #$%%%%%%%%%%+@.        ",
"  @$   #$%%$+..@..@+%%%$@   $@  ",
"  $%$.+%%+.    %    .@$%%+.$%$  ",
"   $%%%$@      %       +%%%%$   ",
"   .%%%.       %        @%%$.   ",
"   +%%%$       %        $%%%+   ",
"  @%$.$%$      %       $%$@%%.  ",
"  $%@  $@      %       @$  $%$  ",
" @%&           %           .%%@ ",
" +%.           %            +%$ ",
".%$            %            @%%.",
".%+            %            .%%.",
"@%@            %             $%@",
"+%.            %             +%+",
"+%.            %             +%+",
"+%@%%%%%%%%%%%%%%%%%%%%%%%%%%+%+",
"+%.            %             +%+",
"@%@            %             $%+",
".%+            %            .%%.",
".$$            %            @%%.",
" +%.           %            +%$ ",
" @%+           %           .%%@ ",
" .$%@  $@      %       @$  $%$  ",
"  @%$.$%$      %       $%$@%%@  ",
"   +%%%$       %        $%%%+   ",
"   .%%%.       %        @%%%.   ",
"   $%%%$@      %       +%%%%$   ",
"  $%$.+%%+.    %    .@$%%+.$%$  ",
"  @$   @$%%$+..@..@+%%%$@   $@  ",
"         @$%%%%%%%%%%+#         ",
"           ..+++++@..           "};
