/* XPM */
static const char* tseries_xpm[] = {
"64 64 530 2",
"  	c None",
". 	c #D1D1D1",
"+ 	c #B5B5B5",
"@ 	c #909090",
"# 	c #5B5B5B",
"$ 	c #393939",
"% 	c #6E6E6E",
"& 	c #B6B6B6",
"* 	c #636363",
"= 	c #111111",
"- 	c #060606",
"; 	c #000000",
"> 	c #171717",
", 	c #5A5A5A",
"' 	c #2C2C2C",
") 	c #424242",
"! 	c #939393",
"~ 	c #D9D9D9",
"{ 	c #D0D0D0",
"] 	c #585858",
"^ 	c #181818",
"/ 	c #080808",
"( 	c #282828",
"_ 	c #696969",
": 	c #999999",
"< 	c #DDDDDD",
"[ 	c #EBEBEB",
"} 	c #BBBBBB",
"| 	c #828282",
"1 	c #303030",
"2 	c #161616",
"3 	c #0B0B0B",
"4 	c #373737",
"5 	c #A9A9A9",
"6 	c #C9C9C9",
"7 	c #565656",
"8 	c #151515",
"9 	c #717171",
"0 	c #E9E9E9",
"a 	c #8C8C8C",
"b 	c #3B3B3B",
"c 	c #030303",
"d 	c #292929",
"e 	c #A8A8A8",
"f 	c #C8C8C8",
"g 	c #4F4F4F",
"h 	c #1B1B1B",
"i 	c #8E8E8E",
"j 	c #B9B9B9",
"k 	c #3D3D3D",
"l 	c #020202",
"m 	c #262626",
"n 	c #959595",
"o 	c #747474",
"p 	c #070707",
"q 	c #242424",
"r 	c #C7C7C7",
"s 	c #484848",
"t 	c #DEDEDE",
"u 	c #D5D5D5",
"v 	c #3E3E3E",
"w 	c #AAAAAA",
"x 	c #C1C1C1",
"y 	c #CECECE",
"z 	c #C6C6C6",
"A 	c #BFBFBF",
"B 	c #121212",
"C 	c #1D1D1D",
"D 	c #9C9C9C",
"E 	c #CFCFCF",
"F 	c #141414",
"G 	c #8A8A8A",
"H 	c #D8D8D8",
"I 	c #E3E3E3",
"J 	c #383838",
"K 	c #9A9A9A",
"L 	c #040404",
"M 	c #888888",
"N 	c #858585",
"O 	c #515151",
"P 	c #7D7D7D",
"Q 	c #9F9F9F",
"R 	c #A4A4A4",
"S 	c #929292",
"T 	c #434343",
"U 	c #1C1C1C",
"V 	c #323232",
"W 	c #6F6F6F",
"X 	c #131313",
"Y 	c #979797",
"Z 	c #ECECEC",
"` 	c #7F7F7F",
" .	c #A1A1A1",
"..	c #ADADAD",
"+.	c #A7A7A7",
"@.	c #989898",
"#.	c #353535",
"$.	c #B4B4B4",
"%.	c #333333",
"&.	c #414141",
"*.	c #838383",
"=.	c #595959",
"-.	c #363636",
";.	c #343434",
">.	c #404040",
",.	c #BABABA",
"'.	c #656565",
").	c #757575",
"!.	c #010101",
"~.	c #686868",
"{.	c #EAEAEA",
"].	c #2B2B2B",
"^.	c #313131",
"/.	c #707070",
"(.	c #5E5E5E",
"_.	c #898989",
":.	c #8D8D8D",
"<.	c #666666",
"[.	c #949494",
"}.	c #C3C3C3",
"|.	c #CBCBCB",
"1.	c #2D2D2D",
"2.	c #454545",
"3.	c #ACACAC",
"4.	c #ABABAB",
"5.	c #787878",
"6.	c #DFDFDF",
"7.	c #DCDCDC",
"8.	c #575757",
"9.	c #0A0A0A",
"0.	c #B8B8B8",
"a.	c #A5A5A5",
"b.	c #BDBDBD",
"c.	c #C5C5C5",
"d.	c #A3A3A3",
"e.	c #AFAFAF",
"f.	c #9D9D9D",
"g.	c #9B9B9B",
"h.	c #C2C2C2",
"i.	c #D4D4D4",
"j.	c #A0A0A0",
"k.	c #BEBEBE",
"l.	c #E8E8E8",
"m.	c #CDCDCD",
"n.	c #2A2A2A",
"o.	c #D7D7D7",
"p.	c #676767",
"q.	c #B0B0B0",
"r.	c #AEAEAE",
"s.	c #E4E4E4",
"t.	c #CCCCCC",
"u.	c #B2B2B2",
"v.	c #B3B3B3",
"w.	c #4E4E4E",
"x.	c #E6E6E6",
"y.	c #D6D6D6",
"z.	c #D2D2D2",
"A.	c #A2A2A2",
"B.	c #DBDBDB",
"C.	c #B1B1B1",
"D.	c #E1E1E1",
"E.	c #DADADA",
"F.	c #444444",
"G.	c #E7E7E7",
"H.	c #050505",
"I.	c #B7B7B7",
"J.	c #CACACA",
"K.	c #0C0C0C",
"L.	c #777777",
"M.	c #C4C4C4",
"N.	c #9E9E9E",
"O.	c #E0E0E0",
"P.	c #8B8B8B",
"Q.	c #E5E5E5",
"R.	c #E2E2E2",
"S.	c #1F1F1F",
"T.	c #BCBCBC",
"U.	c #969696",
"V.	c #8F8F8F",
"W.	c #767676",
"X.	c #212121",
"Y.	c #D3D3D3",
"Z.	c #818181",
"`.	c #7E7E7E",
" +	c #C0C0C0",
".+	c #919191",
"++	c #737373",
"@+	c #616161",
"#+	c #0F0F0F",
"$+	c #6C6C6C",
"%+	c #1A1A1A",
"&+	c #5C5C5C",
"*+	c #727272",
"=+	c #101010",
"-+	c #848484",
";+	c #7B7B7B",
">+	c #646464",
",+	c #5D5D5D",
"'+	c #555555",
")+	c #232323",
"!+	c #6B6B6B",
"~+	c #5F5F5F",
"{+	c #525252",
"]+	c #494949",
"^+	c #878787",
"/+	c #A6A6A6",
"(+	c #868686",
"_+	c #4A4A4A",
":+	c #1E1E1E",
"<+	c #505050",
"[+	c #464646",
"}+	c #3C3C3C",
"|+	c #6D6D6D",
"1+	c #3A3A3A",
"2+	c #7C7C7C",
"3+	c #3F3F3F",
"4+	c #797979",
"5+	c #6A6A6A",
"6+	c #B7B4B4",
"7+	c #C96D6D",
"8+	c #B03F3F",
"9+	c #FF8E8E",
"0+	c #D96868",
"a+	c #FE8C8C",
"b+	c #FF9B9B",
"c+	c #FFE8E8",
"d+	c #878383",
"e+	c #606060",
"f+	c #8A8888",
"g+	c #878181",
"h+	c #836868",
"i+	c #A43838",
"j+	c #D61B1B",
"k+	c #CF1414",
"l+	c #D01515",
"m+	c #DE2323",
"n+	c #E02525",
"o+	c #F93434",
"p+	c #FF0000",
"q+	c #871919",
"r+	c #AC8E8E",
"s+	c #C55C5C",
"t+	c #DC3232",
"u+	c #EA1B1B",
"v+	c #870000",
"w+	c #808080",
"x+	c #B89D9D",
"y+	c #CA6E6E",
"z+	c #DC4343",
"A+	c #EA2525",
"B+	c #FC0404",
"C+	c #FF2525",
"D+	c #F73636",
"E+	c #DC1C1C",
"F+	c #D51414",
"G+	c #AE1F1F",
"H+	c #8A2424",
"I+	c #821C1C",
"J+	c #791313",
"K+	c #6E0808",
"L+	c #740E0E",
"M+	c #FD9797",
"N+	c #E7DBDB",
"O+	c #F2E7E7",
"P+	c #231D1D",
"Q+	c #E7C1C1",
"R+	c #CB5B5B",
"S+	c #F20F0F",
"T+	c #F51313",
"U+	c #FA0B0B",
"V+	c #EA1919",
"W+	c #DF3E3E",
"X+	c #ED7C7C",
"Y+	c #E2C6C6",
"Z+	c #B0A5A5",
"`+	c #272727",
" @	c #806A6A",
".@	c #C06666",
"+@	c #F92D2D",
"@@	c #FF0707",
"#@	c #F60E0E",
"$@	c #DE1818",
"%@	c #C03838",
"&@	c #955A5A",
"*@	c #9E7171",
"=@	c #090909",
"-@	c #7A7A7A",
";@	c #957272",
">@	c #CA3535",
",@	c #F80707",
"'@	c #FC0303",
")@	c #D52424",
"!@	c #C14040",
"~@	c #B37575",
"{@	c #9E9191",
"]@	c #474747",
"^@	c #202020",
"/@	c #0E0E0E",
"(@	c #FDD6D6",
"_@	c #D25D5D",
":@	c #F10D0D",
"<@	c #B74141",
"[@	c #8E6464",
"}@	c #2F2F2F",
"|@	c #4D4D4D",
"1@	c #876B6B",
"2@	c #D17272",
"3@	c #FF4E4E",
"4@	c #FF0303",
"5@	c #D72222",
"6@	c #965B5B",
"7@	c #787474",
"8@	c #222222",
"9@	c #D1BFBF",
"0@	c #BC7474",
"a@	c #D91E1E",
"b@	c #F80606",
"c@	c #F20A0A",
"d@	c #D12525",
"e@	c #915858",
"f@	c #737070",
"g@	c #BFB6B6",
"h@	c #954141",
"i@	c #DF1818",
"j@	c #F71212",
"k@	c #FF0E0E",
"l@	c #ED2B2B",
"m@	c #954646",
"n@	c #745F5F",
"o@	c #626262",
"p@	c #0D0D0D",
"q@	c #FFE3E3",
"r@	c #FF7070",
"s@	c #FF2828",
"t@	c #F70404",
"u@	c #D92222",
"v@	c #F69191",
"w@	c #F6D4D4",
"x@	c #4C4C4C",
"y@	c #FFA4A4",
"z@	c #FF3C3C",
"A@	c #FF3232",
"B@	c #DA5F5F",
"C@	c #786262",
"D@	c #466767",
"E@	c #506161",
"F@	c #949393",
"G@	c #FFB5B5",
"H@	c #FF6363",
"I@	c #FF1212",
"J@	c #FF0909",
"K@	c #FF6D6D",
"L@	c #FFE0E0",
"M@	c #406060",
"N@	c #405F5F",
"O@	c #505757",
"P@	c #306969",
"Q@	c #090606",
"R@	c #EB0000",
"S@	c #FF0404",
"T@	c #FF5757",
"U@	c #FFA8A8",
"V@	c #CDD4D4",
"W@	c #3D5A5A",
"X@	c #3C5858",
"Y@	c #3C5959",
"Z@	c #3D5959",
"`@	c #296767",
" #	c #296565",
".#	c #395B5B",
"+#	c #4A8B8B",
"@#	c #97B3B3",
"##	c #375454",
"$#	c #355151",
"%#	c #691919",
"&#	c #E2B8B8",
"*#	c #CDADAD",
"=#	c #CCD8D8",
"-#	c #C8CACA",
";#	c #D9E0E0",
">#	c #8FAEAE",
",#	c #299494",
"'#	c #2F8F8F",
")#	c #078080",
"!#	c #008080",
"~#	c #228383",
"{#	c #388D8D",
"]#	c #0B7C7C",
"^#	c #017F7F",
"/#	c #0D7070",
"(#	c #252525",
"_#	c #BADCDC",
":#	c #B2D8D8",
"<#	c #74BABA",
"[#	c #C1E0E0",
"}#	c #118787",
"|#	c #147E7E",
"1#	c #2B8383",
"2#	c #068080",
"3#	c #0E7F7F",
"4#	c #408F8F",
"5#	c #1D8989",
"6#	c #027D7D",
"7#	c #077676",
"8#	c #A7A7A8",
"9#	c #BABAFF",
"0#	c #6E86E7",
"a#	c #959AFA",
"b#	c #8491F2",
"c#	c #396CCD",
"d#	c #BDDEDE",
"e#	c #0F8585",
"f#	c #2F8787",
"g#	c #3B8D8D",
"h#	c #609999",
"i#	c #308585",
"j#	c #000006",
"k#	c #0000CC",
"l#	c #0000FF",
"m#	c #000FF0",
"n#	c #002BD5",
"o#	c #0052AD",
"p#	c #0058A8",
"q#	c #006F91",
"r#	c #048282",
"s#	c #238686",
"t#	c #318484",
"u#	c #478F8F",
"v#	c #198080",
"w#	c #0F7676",
"x#	c #055B5B",
"y#	c #000026",
"z#	c #0A278D",
"A#	c #1245AB",
"B#	c #0635BE",
"C#	c #1C25E6",
"D#	c #0C0EDA",
"E#	c #0003FC",
"F#	c #0006F9",
"G#	c #0019E7",
"H#	c #0937D0",
"I#	c #0433CC",
"J#	c #0232CB",
"K#	c #0130C9",
"L#	c #5B5BF4",
"M#	c #5C5CF5",
"N#	c #5F5FF8",
"O#	c #6262FB",
"P#	c #BCBCFE",
"Q#	c #C1C1FF",
"R#	c #D5D5EE",
"S#	c #050606",
"T#	c #084B4B",
"U#	c #037D7D",
"V#	c #0D8383",
"W#	c #05787D",
"X#	c #00728E",
"Y#	c #0051AE",
"Z#	c #0044BB",
"`#	c #0043BD",
" $	c #0017E8",
".$	c #0909F7",
"+$	c #0A0AED",
"@$	c #1717F9",
"#$	c #2727F0",
"$$	c #6B6BF3",
"%$	c #7171F9",
"&$	c #AAAAF1",
"*$	c #D0D0F2",
"=$	c #040707",
"-$	c #002A2A",
";$	c #007B7B",
">$	c #006C94",
",$	c #006997",
"'$	c #D2D2FF",
")$	c #8A8AFF",
"!$	c #7777FF",
"~$	c #5666EE",
"{$	c #3D5AE2",
"]$	c #6F73FB",
"^$	c #2E2EFF",
"/$	c #1C1CFF",
"($	c #1919FF",
"_$	c #0B0B96",
":$	c #001414",
"<$	c #116B6B",
"[$	c #007F7F",
"}$	c #3E9F9F",
"|$	c #96C7CE",
"1$	c #6666EE",
"2$	c #000058",
"3$	c #030304",
"4$	c #023636",
"5$	c #097878",
"6$	c #7EBFBF",
"7$	c #000202",
"8$	c #0C4040",
"9$	c #1B7676",
"0$	c #077E7E",
"a$	c #067A7A",
"b$	c #0A7676",
"c$	c #057B7B",
"d$	c #0B7575",
"e$	c #047C7C",
"f$	c #0C7474",
"g$	c #027E7E",
"h$	c #0D7373",
"i$	c #72B1B1",
"j$	c #022F2F",
"k$	c #026565",
"l$	c #037B7B",
"m$	c #006E6E",
"n$	c #044747",
"o$	c #071313",
"p$	c #001B1B",
"q$	c #004141",
"r$	c #006262",
"s$	c #007373",
"t$	c #007A7A",
"u$	c #006F6F",
"v$	c #0D4C4C",
"w$	c #002E2E",
"x$	c #000606",
"y$	c #000707",
"z$	c #001C1C",
"A$	c #1E3E3E",
"B$	c #004A4A",
"C$	c #034C4C",
"D$	c #1E4F4F",
"E$	c #001212",
"                                                  . + @ # # # # $ # # # % + &                                                   ",
"                                            + * = - ; > $ $ $ $ , $ $ $ ' ; ; = ) ! ~                                           ",
"                                      { ] ^ / ( _ : < [                   < } | 1 2 3 4 5                                       ",
"                                  6 7 - 8 9 {                                     0 a b c d e                                   ",
"                              f g ; h i                                                 j k l m n                               ",
"                            o p q @                                                         r s ; k t                           ",
"                        u ) ; v w x x x x x x <       y x x x x x x x x         z x x x x x x A _ B C D                         ",
"                      E h F G H I I I I I I I D       J ; ; ; ; ; q I K         > ; ; ; ; ; ; ; 8 [ s L M                       ",
"                    N B O I & P Q R R R R R R S       T U U U U U V R W         > ; ; ; ; ; X U q     Y / s Z                   ",
"                  ` ; 7     & ; {              .       .              ..        > ; ; ; ; ; +.   .      @.l #.0                 ",
"                $.; %.      & ; &.g g g g g g *.      =.g g g g g g g -.        > ; ; ; ; ; ;.g >.      K 4 L 7                 ",
"              ,.3 '.e       & ; ; ; ; ; ; ; ; ).      J ; ; ; ; ; ; ; ;         > ; ; ; ; ; ; ; 8       @.!.T 3 ~.              ",
"            {./ ].e %       & | i i i i i i i i       -.; ; ^.W % /.P (.        > ; ; _.i i i i *       @.; :.<.; [.            ",
"            1 U }.< !       & |.< < < < < < < K     < 1.; ; 2...3.4.4.5.6.  7.0 2 ; ; u < < < < i       @.; y ~ 8.9.0.          ",
"          S !.4.f z z         z z z z z z }.w a.b.A c.d.+.j e.R f.g.K @.h.i.  |.! j.k.z z z z z |.      l.z z z m.n.J           ",
"        o.3 p.                          [ x q.q.q.e.r.3.5 w b.s.0 m.z c.}.h.f   t.u.v.H                           ,.9.N         ",
"        w.X A   x.y.  0 y.0 Z y.x.  z.h.4.D A...Q Q w f.@.A.Y D { B.C.j $.+.v.0.6 $.R @ w   H D.  B.<   t E.  D.o.  F./ G.      ",
"      { H.G x.                      $.r.+ $.& ,.I.& & q.3.3.+.j.J.{ l.f x b.A k.x s.C.d.n }.                    G.  y.K.L.      ",
"      g U Z <                     k.+.C.k.. s.{.[ [ x.y.,.C...@.t.|.< s.z M.h.x k.< t.w @ N.s.O.                t     ~.3 s.    ",
"    r ; P.  m.                  b.$.d.} {.I { 6 z c.f H {.A q.@ 6 t.t.  J.M.}.x A M.Q..._.g.0.f z.              E     R.p _     ",
"    W S.    s.                x C.& u.s.. z 6 J.J.m.. z.6.[ k.j.c.m.|.x.u c.}.x A T.{.C.U.D @.< V.6.            Q.      W.X.    ",
"  s.B =.  O.T.  s.Y.[ G.Y.l.6 n A...w j } ..,.7.Y.~   7.o.  6.,.t z r.|.c.+.$.v.A.w o.f._.n Z.e.S `.E   B.o.  6.b.  R.Y.z L Y   ",
"  A L  +    r               }.4.C.I.z & m.Z       Q.{.  z.i.~ u.        6.x x  +T.j < ,.M D .+..I.++A.          f         m @+  ",
"  p.#+      E.              0.r.v.0.|.M.J.D.      z.  t.k.j $.g.b.G.      Q.f h. +} O.b..+f.! Q J.o % B.        B.        $+2   ",
"  %+&+      [           t t + r.u.I.b.x.t.6 Y.      x.h.b.0.v.d.i.  E.H       .  +} G.+ K D ! Y z.++p.@         [         ,.; T.",
"t.- S       u           + Y. +3.C.& e f   7.E E Z   {. +,.& + 0.y.m.J.f f 6.    B.k.0 r.:.g..+n z.*+'.@+t       y.        6.=+).",
"T.; b.{   7.& Z O.m.l.m.M  .z V.f.+.-+K 0.I.}.~ A f Z q.g.w c. .Q u.a.0.u. .,.t t.z.m.V.5..+;+-+h.>+,+'+Y z.  E.I.Z t m.{.R.d (.",
"Z.%+[       [         J.D  .7.c.3.q.3.v.,.b.k.A A f     + Y.o.N.+.c.f z c.M.y R.    s.w U.Y i R A % @+'+>+      [           * )+",
"(.d         O.        + K N.5 D.t.e.R ..& 0.j ,.j 0.0   J.Q.r.n d.h.r f H Z G.i.z l.  y.@ n P.} a.!+~+{+]+D.    D.          ^+; ",
"(.d         m.        T.Y g.Q 5 i.R.e.5 u.v.$.$.$.v.i.    T./+G Q  +i.Z R.J.x b.0.0.{.  A.[._.y.(+~.# w.) x     E           ^+; ",
"(.d         D.        z.n @.D Q d.+ J.< H c.0.v.q.r.f   t +.d..+A.7.{.m.}.x A } + e.q.[ 6.r D { *+>+8._+v z     R.          ^+; ",
"(.:+H {   7.j Z O.m.o.J.M _.i -+V.@.*.n $.r.T.u T.} y.o.e.: :.^+. T.d.$.e.Q 3.e [.g.: V.$.[ b.! ~.] <+[+k e.  E.,.Z t m.{.R.% ; ",
"}+_+        m.      H $.|.! n @.g.f.V.: d.a.a./+e r..    +N.j & +.I.}.h.x k.,.$.e.q.k.y }     x |+# w.>.[+      E           ^+; ",
"(.d         y.      o.a Y.+ S [.Y : V.Y Q j.j. .j.j.y.  C.M.E.:.S + h.x A } } m.D.O.6 ..(+@ 7.  f @+]+1+` M.    H           ^+; ",
"(.d         [       ~ ^+! ~ 0.! ! n .+n K g.D D D f.Z   y z.: _.V.$.x A h.~ G.. u.j.Y i `.2+2+|.  u (.3+x `.    [           ^+; ",
"(.(         |.      6.| | :.|.r g.@ | G ! .+! n S A.    f [.a 4+_.e.0.Y.s.z r.d.K U.V.-+/.).5+p.r.  t 6+7+8+9+9+0+a+b+c+c+c+d+; ",
"e+m l.7.  Q.e   l.E.Q.`.W.`.| G r m..+N :.*.(+:.-+v.  q.| M Z.~.*.+ m.r a.Y f.Y M f+g+h+i+j+k+l+l+m+n+o+p+p+p+p+p+p+p+p+p+p+q+l ",
"T.; J.      0         .+Z.*.-+(+M D T.o.< u J.h.k.    ! P._.M ` c.I k.q.3./+r+s+t+u+p+p+p+p+p+p+p+p+p+p+p+p+p+p+p+p+p+p+p+p+v+(.",
"T.; v.      I         3.` w+| *.-+N w+N i @.R ..7.  k.M ^+(+Y  ++ r.x+y+z+A+B+p+p+p+p+C+D+E+F+G+H+I+J+K+L+M+    N+        O+P+(.",
"  > $+      m.        { `.`.` Z.| *.5.`.N N (+[.    V.-+-++.Q+R+S+T+U+p+p+p+p+V+W+X+Y+Z+5+# w.) #.`+2 H.<+      E         J.; C.",
"  [+S.{   7.c.Z O.m.l.H 2+++W.% ).4+_ *+2+*+W. +Y.a.2+ @.@+@@@p+p+p+#@$@%@&@*@e.3.j.9 # {+w.F.b 1.q > / U.z.  E.z   t m.{.~.K.B.",
"  N.=@6.    [           t *.4+;+P P -@2+` ` A.  D.;@>@,@p+p+'@)@!@~@{@[.n k.E.e -@|+>+# g ]@1+1.^@/@l m         [         ]@>.  ",
"  y.; .+    {             O.P.W.5.-@9 L.2+(+{.(@_@p+p+p+:@<@[@_ P [.@ 3.t + w+++!+* , O F.}+}@X.= c ; V.        z.      Q.9.5.  ",
"    |@}+    Y.            f z.T.M W.% *+1@2@3@4@p+p+5@6@7@o *+<.-@U.y m._.W./.~.@+=.<+[+}+}@8@X L ; 1           u       Y /@6.  ",
"    a.; A   [               -+Y J.9@0@a@b@p+p+c@d@e@f@9 W % $+'.U.~ /+-@*+$+'.(.7 |@F.1+1 8@F H.; p I.          [       q s     ",
"      `+$ < 5 Z O.m.l.s.m.s.g@h@i@j@p+p+k@l@m@n@o@o@p.@+~+* @+~.J.w+<.~.@+=.8.<+s ) J V ' > F p@p $+Y.  y.z.  E.4.Z t :.;  +    ",
"      N.!.C.m.          q@r@s@p+p+t@u@v@w@_.'.'.'.'.>+* @+* e.4.++$+p.o@# '+w.[+k ;.n.:+C L ; !.x@              E     ^@F.      ",
"        1.J x.      y@z@p+p+p+A@B@C@Y.  : ,+(.(.D@,+&+E@,+$.w '+* e+# '+g ]+&.J }@m %+K.3 ; ; ) {.              G.  U.L J.      ",
"        /+; F@G@H@I@p+p+J@K@L@      [ : '+'+'+'+M@N@O@P@..a.O x@8.{+|@s &.1+V d S.F / !./ !.w.                  G.Z 8 s         ",
"          , Q@R@p+S@T@U@            V@W@X@Y@Z@Z@`@ #.#+#@#W@##$#_+2.3+$ V n.8@^ p@L ; ; ^ *+                    E O 2 D.        ",
"          E.9.%#&#*#l.=#-#s.;#m.D.[ >#,#'#)#!#!#!#!#~#{#]#!#^#/#b -.%.].(#8@8 K.= 9./ b ++0 E E.  Y.y.  y.z.  E..+; (+          ",
"            + ; W     _#:#  <#      [#!#}#|#1#2#!#3#4#5#!#!#6#7#n.q :+2 p@H.!.; !.U | Z [                     ,./@,+            ",
"              ~.!.8#9#0#a#b#c#      d#!#!#!#e#f#g#h#i#!#!#!#!#!#2 =+=@c !.; p $ n G.    Y.                  {.h q s.            ",
"                ++j#k#l#l#l#l#l#l#m#n#o#p#p#q#!#!#r#s#t#u#v#w#x#H.K.C 1+'.g.E.          {                 G.].1.l.              ",
"                  #.y#z#A#B#C#D#l#l#l#l#l#l#E#F#F#F#F#G#H#I#J#K#L#M#N#O#P#Q#Q#Q#Q#Q#Q#R#i.  t Q.  O.I   Y.m K.0.                ",
"                  Z $ S#T#U#V#W#X#Y#Z#Z#`# $ $ $ $ $E#l#l#l#l#l#l#l#l#l#l#l#l#l#l#l#l#.$+$@$#$$$%$&$*$y.S./@,.                  ",
"                      ^+=$-$;$!#!#!#!#!#!#!#!#!#!#!#>$,$,$,$,$,$'$'$)$!$!$~$~${$]$^$/$/$($l#l#l#l#l#_$2 k 6.                    ",
"                        .+p :$<$[$!#!#!#!#!#!#!#!#!#!#!#!#!#!#!#}$}$}$}$}$}$}$}$}$}$}$}$|$Q#Q#Q#1$2$3$[+                        ",
"                          t C ; 4$5$!#!#!#!#!#!#!#!#!#!#!#!#!#!#!#!#!#!#!#!#!#!#!#!#!#!#6$    j.#+; f.                          ",
"                              o p@7$8$9$0$a$b$c$c$d$c$e$f$c$U#a$c$g$h$c$^#h$a$!#h$a$!#h$i$@.(#; 3+6.                            ",
"                                Q.% F p j$k$l$g$g$e$g$^#e$g$^#g$g$^#e$g$!#e$g$!#e$g$m$n$o$!.|@ +                                ",
"                                    G.2+F ; p$q$r$s$!#!#!#!#!#!#!#!#!#!#!#!#t$u$v$w$x$/ g h.                                    ",
"                                        l.4., #+; y$z$A$B$B$C$B$B$C$B$B$D$z$E$; =@$ G Y.                                        ",
"                                                + P # #.; ; ; ; ; ; ; ; F # &++ <                                               "};
