/* XPM */
static const char * view_refresh_xpm[] = {
"32 32 347 2",
"  	c None",
". 	c #224C8A",
"+ 	c #234E8A",
"@ 	c #224C89",
"# 	c #224E8A",
"$ 	c #224D89",
"% 	c #234D8A",
"& 	c #244F8B",
"* 	c #25508C",
"= 	c #204A87",
"- 	c #214C89",
"; 	c #2D5995",
"> 	c #3865A2",
", 	c #406FAD",
"' 	c #4C79B4",
") 	c #4F7DB8",
"! 	c #5682BB",
"~ 	c #5985BD",
"{ 	c #5982B7",
"] 	c #557DB3",
"^ 	c #4972A9",
"/ 	c #355C96",
"( 	c #244E89",
"_ 	c #26508C",
": 	c #254F8B",
"< 	c #315E9B",
"[ 	c #3F6EAC",
"} 	c #4271AF",
"| 	c #4474B1",
"1 	c #4776B3",
"2 	c #4978B5",
"3 	c #4B7AB7",
"4 	c #4D7DB9",
"5 	c #5380BB",
"6 	c #5A86BE",
"7 	c #628DC1",
"8 	c #6C94C5",
"9 	c #779CC8",
"0 	c #7FA1C9",
"a 	c #668AB6",
"b 	c #40679C",
"c 	c #244D8B",
"d 	c #26508B",
"e 	c #7091BA",
"f 	c #224B89",
"g 	c #254F8D",
"h 	c #3969A6",
"i 	c #3E6EAC",
"j 	c #4070AE",
"k 	c #4372B0",
"l 	c #4676B2",
"m 	c #4979B5",
"n 	c #4E7CB7",
"o 	c #507EB9",
"p 	c #5180BA",
"q 	c #5583BD",
"r 	c #5986BE",
"s 	c #5F8BC0",
"t 	c #658FC3",
"u 	c #6A93C5",
"v 	c #7199C7",
"w 	c #80A3CC",
"x 	c #8EADD1",
"y 	c #8CA9CC",
"z 	c #5C7EAD",
"A 	c #264F8A",
"B 	c #244E8A",
"C 	c #25508B",
"D 	c #809DC2",
"E 	c #A6C0DB",
"F 	c #244F8C",
"G 	c #3968A7",
"H 	c #3D6DAB",
"I 	c #3F6FAD",
"J 	c #3A69A7",
"K 	c #3663A0",
"L 	c #34609C",
"M 	c #33609D",
"N 	c #38649E",
"O 	c #416CA6",
"P 	c #4D78B0",
"Q 	c #618ABE",
"R 	c #6991C3",
"S 	c #6A92C4",
"T 	c #6993C4",
"U 	c #6C95C6",
"V 	c #729AC8",
"W 	c #789ECA",
"X 	c #7DA2CD",
"Y 	c #88AAD0",
"Z 	c #9AB7D6",
"` 	c #9CB7D4",
" .	c #5D80AC",
"..	c #224B88",
"+.	c #87A3C5",
"@.	c #A6C0DC",
"#.	c #A3BEDA",
"$.	c #224D8A",
"%.	c #3564A2",
"&.	c #3B6BAA",
"*.	c #325E9D",
"=.	c #244E8C",
"-.	c #24518E",
";.	c #315C9A",
">.	c #315F9C",
",.	c #2E5C9A",
"'.	c #2A5A97",
").	c #285693",
"!.	c #24508B",
"~.	c #224C88",
"{.	c #315994",
"].	c #547BAF",
"^.	c #799CC7",
"/.	c #7EA1CC",
"(.	c #7AA0CB",
"_.	c #80A4CE",
":.	c #85A9D0",
"<.	c #8BADD2",
"[.	c #96B5D5",
"}.	c #AAC3DC",
"|.	c #B1C7DC",
"1.	c #A8C1DD",
"2.	c #87ACD5",
"3.	c #A1BCDA",
"4.	c #285491",
"5.	c #3969A7",
"6.	c #285391",
"7.	c #26528E",
"8.	c #4772AD",
"9.	c #5F89C0",
"0.	c #5A85BC",
"a.	c #3668A6",
"b.	c #244D89",
"c.	c #5076A8",
"d.	c #84A4C9",
"e.	c #8CACD0",
"f.	c #84A7CE",
"g.	c #87AAD1",
"h.	c #8DAFD3",
"i.	c #93B3D5",
"j.	c #99B8D8",
"k.	c #9FBCDB",
"l.	c #8EB1D7",
"m.	c #80A8D3",
"n.	c #A2BEDA",
"o.	c #224D8B",
"p.	c #2F5D9B",
"q.	c #275391",
"r.	c #2A5794",
"s.	c #5D87BF",
"t.	c #648EC4",
"u.	c #658FC5",
"v.	c #4472AE",
"w.	c #264E8B",
"x.	c #6385B2",
"y.	c #9BB6D4",
"z.	c #95B3D5",
"A.	c #8FB1D4",
"B.	c #95B5D6",
"C.	c #9CBADA",
"D.	c #98B8D9",
"E.	c #87ADD5",
"F.	c #78A2D0",
"G.	c #A2BDDB",
"H.	c #2B5795",
"I.	c #5F8BC2",
"J.	c #6991C7",
"K.	c #6B93C8",
"L.	c #6C95CA",
"M.	c #396AA6",
"N.	c #254F8C",
"O.	c #335C93",
"P.	c #89A5C8",
"Q.	c #A5BEDA",
"R.	c #98B7D8",
"S.	c #9EBCDB",
"T.	c #91B3D7",
"U.	c #74A0CF",
"V.	c #214A87",
"W.	c #204A88",
"X.	c #4974AE",
"Y.	c #6F96CA",
"Z.	c #3565A5",
"`.	c #1F4B88",
" +	c #A9C0D8",
".+	c #9BBAD9",
"++	c #8AAFD6",
"@+	c #79A4D1",
"#+	c #A5BFDB",
"$+	c #27528F",
"%+	c #396AA7",
"&+	c #29528D",
"*+	c #96B0CE",
"=+	c #A4BFDA",
"-+	c #9DBBDA",
";+	c #95B5D8",
">+	c #84AAD4",
",+	c #739FCF",
"'+	c #75A1D0",
")+	c #305993",
"!+	c #27508B",
"~+	c #8FAACA",
"{+	c #A3BED9",
"]+	c #7DA6D2",
"^+	c #729FCF",
"/+	c #A7C1DC",
"(+	c #214A89",
"_+	c #254D8A",
":+	c #88A5C8",
"<+	c #ABC3DB",
"[+	c #B0C6DC",
"}+	c #B6CAE0",
"|+	c #B4C9DF",
"1+	c #A1BDDB",
"2+	c #A1BDDA",
"3+	c #A4BFDB",
"4+	c #A9C2DC",
"5+	c #254E89",
"6+	c #8AA6C9",
"7+	c #7CA6D2",
"8+	c #8EB1D6",
"9+	c #A2BDD9",
"0+	c #90ABCA",
"a+	c #27508A",
"b+	c #345B96",
"c+	c #83AAD4",
"d+	c #94B5D8",
"e+	c #97B1CE",
"f+	c #27528C",
"g+	c #3868A6",
"h+	c #285390",
"i+	c #A2BDDA",
"j+	c #79A3D1",
"k+	c #8AAFD5",
"l+	c #9BBADA",
"m+	c #9BB9D9",
"n+	c #AAC0D9",
"o+	c #3565A4",
"p+	c #6E97CB",
"q+	c #4A75B0",
"r+	c #204C89",
"s+	c #A0BCD9",
"t+	c #A4BED9",
"u+	c #8DA8CA",
"v+	c #375E95",
"w+	c #264F8C",
"x+	c #3869A7",
"y+	c #608CC1",
"z+	c #275491",
"A+	c #2C5796",
"B+	c #214D89",
"C+	c #87ACD4",
"D+	c #98B7D9",
"E+	c #94B2D5",
"F+	c #9AB6D3",
"G+	c #6588B4",
"H+	c #254E8B",
"I+	c #244E8B",
"J+	c #4271AE",
"K+	c #638DC4",
"L+	c #2A5795",
"M+	c #305E9C",
"N+	c #234E89",
"O+	c #9FBCDA",
"P+	c #7FA8D3",
"Q+	c #88ABD1",
"R+	c #83A7CF",
"S+	c #8BACD0",
"T+	c #84A3C9",
"U+	c #5379AA",
"V+	c #244F8A",
"W+	c #5884BB",
"X+	c #4572AC",
"Y+	c #25528E",
"Z+	c #285592",
"`+	c #9BB9D8",
" @	c #86ACD5",
".@	c #A7C1DD",
"+@	c #B1C6DC",
"@@	c #97B6D6",
"#@	c #799FCA",
"$@	c #7A9EC8",
"%@	c #577DB1",
"&@	c #325A95",
"*@	c #254E8C",
"=@	c #295593",
"-@	c #2B5998",
";@	c #305F9B",
">@	c #305C99",
",@	c #24508D",
"'@	c #3565A3",
")@	c #9FBAD8",
"!@	c #88A4C5",
"~@	c #5A7DA9",
"{@	c #9AB5D2",
"]@	c #9AB6D6",
"^@	c #89ABD1",
"/@	c #4F7AB1",
"(@	c #416CA7",
"_@	c #38649F",
":@	c #34609D",
"<@	c #345F9E",
"[@	c #3663A1",
"}@	c #3B69A7",
"|@	c #A2BCD9",
"1@	c #254E8A",
"2@	c #204780",
"3@	c #254F8A",
"4@	c #587CAA",
"5@	c #8AA8CB",
"6@	c #8EAED2",
"7@	c #80A3CB",
"8@	c #5582BC",
"9@	c #507EBA",
"0@	c #224A87",
"a@	c #6C8CB6",
"b@	c #1F4275",
"c@	c #244D88",
"d@	c #3D6499",
"e@	c #6487B7",
"f@	c #7DA0C8",
"g@	c #789DC9",
"h@	c #6D94C5",
"i@	c #305E9B",
"j@	c #1F467D",
"k@	c #234D89",
"l@	c #23477D",
"m@	c #325A92",
"n@	c #486FA5",
"o@	c #537CB1",
"p@	c #5881B6",
"q@	c #5984BC",
"r@	c #5582BB",
"s@	c #4B79B4",
"t@	c #2C5995",
"u@	c #214B88",
"v@	c #204983",
"w@	c #204A86",
"x@	c #1A3867",
"y@	c #20467B",
"z@	c #234A85",
"A@	c #224B86",
"B@	c #224B87",
"C@	c #214B87",
"D@	c #224B85",
"E@	c #204680",
"F@	c #1B3D6E",
"                                                                ",
"                  . + @ # $ % & *                           =   ",
"            $ - ; > , ' ) ! ~ { ] ^ / ( _                 : =   ",
"          - < [ } | 1 2 3 4 5 6 7 8 9 0 a b c $         d e =   ",
"      f g h i j k l m n o p q r s t u v w x y z A B   C D E =   ",
"      F G H I J K L M N O P Q R S T U V W X Y Z `  ...+.@.#.=   ",
"    $.%.&.*.=.-.;.>.,.'.).!.~.{.].^./.W (._.:.<.[.}.|.1.2.3.=   ",
"    4.5.6.7.8.9.0.a.            & b.c.d.e.f.g.h.i.j.k.l.m.n.=   ",
"  o.p.q.r.s.t.u.v.                  % w.x.y.z.A.B.C.D.E.F.G.=   ",
"  - H.q.I.J.K.L.M.                      N.O.P.Q.R.S.T.m.U.#.=   ",
"  V.W.X.Y.      Z.                        `.A  +.+C.++@+U.#+=   ",
"  = $+          %+                        &+*+=+-+;+>+,+'+E =   ",
"  = )+                                  !+~+{+j.k.l.]+^+'+/+=   ",
"  (+                                  _+:+<+[+}+|+}.1+2+3+4+=   ",
"                                    = = = = = = = = = = = = =   ",
"  = A A 5+= = = = = = = = =                                     ",
"  = 4+3+2+1+}.|+}+[+<+6+5+                                  =   ",
"  = /+'+^+7+8+k.j.9+0+a+                                  b+=   ",
"  = E '+^+c+d+-+#.e+f+                        g+          h+=   ",
"  = i+U.j+k+l+m+n+A =                         o+      p+q+r+=   ",
"  = s+U.m.T.S.R.t+u+v+w+                      x+L.K.J.y+z+A+B+  ",
"  = k.F.C+D+C.B.A.E+F+G+H+I+                  J+u.K+s.L+h+M+N+  ",
"  = O+P+8+k.j.i.h.Q+R+S+T+U+V+:             a.W+9.X+Y+6.5.Z+    ",
"  ..`+ @.@+@4+@@<.:._.(.#@/.$@%@&@@ *@=@-@,.;@>@,@F *.&.'@.     ",
"  @ )@@.!@V.~@{@]@^@X W V U T S S Q /@(@_@:@<@[@}@I H G F       ",
"  @ |@D 1@  2@3@4@5@6@7@V u t s 6 8@p 9@n m l k j i h N.0@      ",
"  @ a@1@        b@c@d@e@f@g@h@7 ~ 5 4 3 2 1 | } [ i@- j@        ",
"  = k@                l@c@m@n@o@p@q@r@) s@, > t@u@v@            ",
"  w@                        x@y@z@A@B@C@0@D@E@F@                ",
"                                                                ",
"                                                                ",
"                                                                "};
